<svg width="536" height="307" viewBox="0 0 536 307" fill="none" xmlns="http://www.w3.org/2000/svg">
<g id="Group 32">
<g id="GoViral - Wordpress Theme">
<rect id="Mask" width="536" height="306.751" rx="8" fill="#E8EAF6"/>
<mask id="mask0_1_172" style="mask-type:luminance" maskUnits="userSpaceOnUse" x="0" y="0" width="536" height="307">
<rect id="Mask_2" width="536" height="306.751" rx="8" fill="white"/>
</mask>
<g mask="url(#mask0_1_172)">
<g id="Group 28">
<rect id="Rectangle" x="-3.53044" y="0.174728" width="547" height="52.3073" fill="#242A45"/>
<g id="Group 7">
<ellipse id="Oval" opacity="0.244768" cx="38.4695" cy="26.7716" rx="16" ry="14.185" fill="white"/>
<ellipse id="Oval Copy" opacity="0.104399" cx="499.47" cy="26.7716" rx="16" ry="14.185" fill="white"/>
<g id="Group 6">
<rect id="Rectangle_2" opacity="0.75" x="69.4695" y="17.906" width="120" height="5.31938" rx="2.65969" fill="white"/>
<rect id="Rectangle Copy 6" opacity="0.25" x="69.4695" y="30.3179" width="64" height="5.31938" rx="2.65969" fill="white"/>
</g>
</g>
</g>
<g id="Group 26">
<rect id="Rectangle_3" x="57" y="82.4504" width="261" height="280.154" rx="8" fill="white"/>
<rect id="Rectangle Copy 7" x="352" y="82.4504" width="128" height="280.154" rx="8" fill="white"/>
<rect id="Rectangle_4" opacity="0.5" x="135.47" y="116.315" width="120" height="5.31938" rx="2.65969" fill="#242A45"/>
</g>
</g>
</g>
<g id="Group 29">
<ellipse id="Oval_2" cx="104.47" cy="125.18" rx="16" ry="14.185" fill="#F98E5D"/>
<rect id="Rectangle_5" opacity="0.25" x="372.47" y="102.13" width="88" height="5.31938" rx="2.65969" fill="#242A45"/>
<rect id="Rectangle Copy 8" opacity="0.25" x="372.47" y="119.861" width="88" height="5.31938" rx="2.65969" fill="#242A45"/>
<rect id="Rectangle Copy 9" opacity="0.25" x="372.47" y="137.592" width="88" height="5.31938" rx="2.65969" fill="#242A45"/>
<rect id="Rectangle Copy 10" opacity="0.25" x="372.47" y="155.323" width="88" height="5.31938" rx="2.65969" fill="#242A45"/>
<rect id="Rectangle Copy 11" opacity="0.25" x="372.47" y="185.467" width="88" height="5.31938" rx="2.65969" fill="#242A45"/>
<rect id="Rectangle Copy 12" opacity="0.25" x="372.47" y="203.198" width="88" height="5.31938" rx="2.65969" fill="#242A45"/>
<rect id="Rectangle Copy 13" opacity="0.25" x="372.47" y="220.929" width="88" height="5.31938" rx="2.65969" fill="#242A45"/>
<rect id="Rectangle Copy 6_2" opacity="0.25" x="135.47" y="128.727" width="64" height="5.31938" rx="2.65969" fill="#242A45"/>
</g>
<g id="Group 29 Copy">
<ellipse id="Oval_3" cx="104.47" cy="174.828" rx="16" ry="14.185" fill="#6AC6D6"/>
<rect id="Rectangle_6" opacity="0.5" x="135.47" y="165.962" width="120" height="5.31938" rx="2.65969" fill="#242A45"/>
<rect id="Rectangle Copy 6_3" opacity="0.25" x="135.47" y="178.374" width="64" height="5.31938" rx="2.65969" fill="#242A45"/>
</g>
<g id="Group 29 Copy 2">
<ellipse id="Oval_4" cx="104.47" cy="224.475" rx="16" ry="14.185" fill="#A47ED4"/>
<rect id="Rectangle_7" opacity="0.5" x="135.47" y="215.61" width="120" height="5.31938" rx="2.65969" fill="#242A45"/>
<rect id="Rectangle Copy 6_4" opacity="0.25" x="135.47" y="228.022" width="64" height="5.31938" rx="2.65969" fill="#242A45"/>
</g>
<g id="Group 29 Copy 3">
<ellipse id="Oval_5" cx="104.47" cy="274.123" rx="16" ry="14.185" fill="#EC7878"/>
<rect id="Rectangle_8" opacity="0.5" x="135.47" y="265.257" width="120" height="5.31938" rx="2.65969" fill="#242A45"/>
<rect id="Rectangle Copy 6_5" opacity="0.25" x="135.47" y="277.669" width="64" height="5.31938" rx="2.65969" fill="#242A45"/>
</g>
</g>
</svg>
