<svg width="15" height="14" viewBox="0 0 15 14" fill="none" xmlns="http://www.w3.org/2000/svg">
<path fill-rule="evenodd" clip-rule="evenodd" d="M11.1401 0.470348L13.5376 2.86787C14.2078 3.50643 14.2352 4.56685 13.5989 5.23915L5.72377 13.1142C5.43855 13.3971 5.06471 13.5732 4.66501 13.613L1.01622 13.9455H0.937468C0.704888 13.9468 0.481342 13.8555 0.316211 13.6917C0.131617 13.5078 0.0385936 13.2512 0.0624586 12.9917L0.438713 9.34294C0.47853 8.94324 0.654635 8.5694 0.937468 8.28418L8.81255 0.409097C9.4914 -0.164426 10.4923 -0.138086 11.1401 0.470348ZM8.21754 3.44538L10.5626 5.7904L12.3126 4.08414L9.92381 1.69536L8.21754 3.44538Z" fill="#5357B6"/>
</svg>
