<svg width="1440" height="800" viewBox="0 0 1440 800" fill="none" xmlns="http://www.w3.org/2000/svg">
<rect width="1440" height="800" fill="white"/>
<path fill-rule="evenodd" clip-rule="evenodd" d="M998.082 186.996C1058.45 124.282 1167.45 235.743 1257.76 363.066C1348.07 490.39 1409.64 550.891 1330.76 632.829C1251.89 714.767 1083.54 747.347 998.082 632.829C912.629 518.311 937.713 249.71 998.082 186.996Z" fill="url(#paint0_linear_0_202)"/>
<path fill-rule="evenodd" clip-rule="evenodd" d="M684.885 354.531C633.012 304.698 725.205 214.722 830.519 140.176C935.833 65.6297 985.877 14.8032 1053.65 79.9117C1121.42 145.02 1148.37 283.992 1053.65 354.531C958.929 425.071 736.758 404.364 684.885 354.531Z" fill="#F4F4FC"/>
<path d="M1014 95.0875L1034.09 75L1054.17 95.0875L1074.26 75L1094.35 95.0875L1114.44 75" stroke="#D3629D" stroke-width="4"/>
<path d="M1014 113.087L1034.09 93L1054.17 113.087L1074.26 93L1094.35 113.087L1114.44 93" stroke="#D3629D" stroke-width="4"/>
<path d="M1014 131.087L1034.09 111L1054.17 131.087L1074.26 111L1094.35 131.087L1114.44 111" stroke="#D3629D" stroke-width="4"/>
<path d="M1014 149.087L1034.09 129L1054.17 149.087L1074.26 129L1094.35 149.087L1114.44 129" stroke="#D3629D" stroke-width="4"/>
<path d="M1161 690C1162.66 690 1164 691.343 1164 693C1164 694.657 1162.66 696 1161 696C1159.34 696 1158 694.657 1158 693C1158 691.343 1159.34 690 1161 690ZM1183 690C1184.66 690 1186 691.343 1186 693C1186 694.657 1184.66 696 1183 696C1181.34 696 1180 694.657 1180 693C1180 691.343 1181.34 690 1183 690ZM1205 690C1206.66 690 1208 691.343 1208 693C1208 694.657 1206.66 696 1205 696C1203.34 696 1202 694.657 1202 693C1202 691.343 1203.34 690 1205 690ZM1227 690C1228.66 690 1230 691.343 1230 693C1230 694.657 1228.66 696 1227 696C1225.34 696 1224 694.657 1224 693C1224 691.343 1225.34 690 1227 690ZM1249 690C1250.66 690 1252 691.343 1252 693C1252 694.657 1250.66 696 1249 696C1247.34 696 1246 694.657 1246 693C1246 691.343 1247.34 690 1249 690ZM1271 690C1272.66 690 1274 691.343 1274 693C1274 694.657 1272.66 696 1271 696C1269.34 696 1268 694.657 1268 693C1268 691.343 1269.34 690 1271 690ZM1293 690C1294.66 690 1296 691.343 1296 693C1296 694.657 1294.66 696 1293 696C1291.34 696 1290 694.657 1290 693C1290 691.343 1291.34 690 1293 690ZM1315 690C1316.66 690 1318 691.343 1318 693C1318 694.657 1316.66 696 1315 696C1313.34 696 1312 694.657 1312 693C1312 691.343 1313.34 690 1315 690ZM1337 690C1338.66 690 1340 691.343 1340 693C1340 694.657 1338.66 696 1337 696C1335.34 696 1334 694.657 1334 693C1334 691.343 1335.34 690 1337 690ZM1161 668C1162.66 668 1164 669.343 1164 671C1164 672.657 1162.66 674 1161 674C1159.34 674 1158 672.657 1158 671C1158 669.343 1159.34 668 1161 668ZM1183 668C1184.66 668 1186 669.343 1186 671C1186 672.657 1184.66 674 1183 674C1181.34 674 1180 672.657 1180 671C1180 669.343 1181.34 668 1183 668ZM1205 668C1206.66 668 1208 669.343 1208 671C1208 672.657 1206.66 674 1205 674C1203.34 674 1202 672.657 1202 671C1202 669.343 1203.34 668 1205 668ZM1227 668C1228.66 668 1230 669.343 1230 671C1230 672.657 1228.66 674 1227 674C1225.34 674 1224 672.657 1224 671C1224 669.343 1225.34 668 1227 668ZM1249 668C1250.66 668 1252 669.343 1252 671C1252 672.657 1250.66 674 1249 674C1247.34 674 1246 672.657 1246 671C1246 669.343 1247.34 668 1249 668ZM1271 668C1272.66 668 1274 669.343 1274 671C1274 672.657 1272.66 674 1271 674C1269.34 674 1268 672.657 1268 671C1268 669.343 1269.34 668 1271 668ZM1293 668C1294.66 668 1296 669.343 1296 671C1296 672.657 1294.66 674 1293 674C1291.34 674 1290 672.657 1290 671C1290 669.343 1291.34 668 1293 668ZM1315 668C1316.66 668 1318 669.343 1318 671C1318 672.657 1316.66 674 1315 674C1313.34 674 1312 672.657 1312 671C1312 669.343 1313.34 668 1315 668ZM1337 668C1338.66 668 1340 669.343 1340 671C1340 672.657 1338.66 674 1337 674C1335.34 674 1334 672.657 1334 671C1334 669.343 1335.34 668 1337 668ZM1161 646C1162.66 646 1164 647.343 1164 649C1164 650.657 1162.66 652 1161 652C1159.34 652 1158 650.657 1158 649C1158 647.343 1159.34 646 1161 646ZM1183 646C1184.66 646 1186 647.343 1186 649C1186 650.657 1184.66 652 1183 652C1181.34 652 1180 650.657 1180 649C1180 647.343 1181.34 646 1183 646ZM1205 646C1206.66 646 1208 647.343 1208 649C1208 650.657 1206.66 652 1205 652C1203.34 652 1202 650.657 1202 649C1202 647.343 1203.34 646 1205 646ZM1227 646C1228.66 646 1230 647.343 1230 649C1230 650.657 1228.66 652 1227 652C1225.34 652 1224 650.657 1224 649C1224 647.343 1225.34 646 1227 646ZM1249 646C1250.66 646 1252 647.343 1252 649C1252 650.657 1250.66 652 1249 652C1247.34 652 1246 650.657 1246 649C1246 647.343 1247.34 646 1249 646ZM1271 646C1272.66 646 1274 647.343 1274 649C1274 650.657 1272.66 652 1271 652C1269.34 652 1268 650.657 1268 649C1268 647.343 1269.34 646 1271 646ZM1293 646C1294.66 646 1296 647.343 1296 649C1296 650.657 1294.66 652 1293 652C1291.34 652 1290 650.657 1290 649C1290 647.343 1291.34 646 1293 646ZM1315 646C1316.66 646 1318 647.343 1318 649C1318 650.657 1316.66 652 1315 652C1313.34 652 1312 650.657 1312 649C1312 647.343 1313.34 646 1315 646ZM1337 646C1338.66 646 1340 647.343 1340 649C1340 650.657 1338.66 652 1337 652C1335.34 652 1334 650.657 1334 649C1334 647.343 1335.34 646 1337 646ZM1161 624C1162.66 624 1164 625.343 1164 627C1164 628.657 1162.66 630 1161 630C1159.34 630 1158 628.657 1158 627C1158 625.343 1159.34 624 1161 624ZM1183 624C1184.66 624 1186 625.343 1186 627C1186 628.657 1184.66 630 1183 630C1181.34 630 1180 628.657 1180 627C1180 625.343 1181.34 624 1183 624ZM1205 624C1206.66 624 1208 625.343 1208 627C1208 628.657 1206.66 630 1205 630C1203.34 630 1202 628.657 1202 627C1202 625.343 1203.34 624 1205 624ZM1227 624C1228.66 624 1230 625.343 1230 627C1230 628.657 1228.66 630 1227 630C1225.34 630 1224 628.657 1224 627C1224 625.343 1225.34 624 1227 624ZM1249 624C1250.66 624 1252 625.343 1252 627C1252 628.657 1250.66 630 1249 630C1247.34 630 1246 628.657 1246 627C1246 625.343 1247.34 624 1249 624ZM1271 624C1272.66 624 1274 625.343 1274 627C1274 628.657 1272.66 630 1271 630C1269.34 630 1268 628.657 1268 627C1268 625.343 1269.34 624 1271 624ZM1293 624C1294.66 624 1296 625.343 1296 627C1296 628.657 1294.66 630 1293 630C1291.34 630 1290 628.657 1290 627C1290 625.343 1291.34 624 1293 624ZM1315 624C1316.66 624 1318 625.343 1318 627C1318 628.657 1316.66 630 1315 630C1313.34 630 1312 628.657 1312 627C1312 625.343 1313.34 624 1315 624ZM1337 624C1338.66 624 1340 625.343 1340 627C1340 628.657 1338.66 630 1337 630C1335.34 630 1334 628.657 1334 627C1334 625.343 1335.34 624 1337 624Z" fill="#CF6BCB"/>
<path opacity="0.15" fill-rule="evenodd" clip-rule="evenodd" d="M260 314V214H312.615L284.858 314H260ZM327.385 314V214H380L352.243 314H327.385Z" fill="url(#paint1_linear_0_202)"/>
<path fill-rule="evenodd" clip-rule="evenodd" d="M610 800C610 800 399.239 754.131 276.818 688C154.397 621.869 0 660 0 660L0 800H610Z" fill="#F4F4FC"/>
<defs>
<linearGradient id="paint0_linear_0_202" x1="1440.42" y1="544.452" x2="1048.78" y2="820.146" gradientUnits="userSpaceOnUse">
<stop stop-color="#9975D0"/>
<stop offset="1" stop-color="#4A3FDB"/>
</linearGradient>
<linearGradient id="paint1_linear_0_202" x1="343.744" y1="331.316" x2="409.909" y2="242.425" gradientUnits="userSpaceOnUse">
<stop stop-color="#9975D0"/>
<stop offset="1" stop-color="#4A3FDB"/>
</linearGradient>
</defs>
</svg>
